HIERARCHY
ROOT Hips
{
	OFFSET 0.000000 0.000000 0.000000 
	CHANNELS 6 Xposition Yposition Zposition Zrotation Yrotation Xrotation
	JOINT LeftUpLeg
	{
		OFFSET 1.363060 -1.794630 0.839290 
		CHANNELS 3 Zrotation Yrotation Xrotation
		JOINT LeftLeg
		{
			OFFSET 2.448110 -6.726130 0.000000 
			CHANNELS 3 Zrotation Yrotation Xrotation
			JOINT LeftFoot
			{
				OFFSET 2.562200 -7.039590 0.000000 
				CHANNELS 3 Zrotation Yrotation Xrotation
				JOINT LeftToeBase
				{
					OFFSET 0.157640 -0.433110 2.322550 
					CHANNELS 3 Zrotation Yrotation Xrotation
					End Site
					{
						OFFSET 0.000000 0.000000 0.000000 
					}
				}
			}
		}
	}
	JOINT RightUpLeg
	{
		OFFSET -1.305520 -1.794630 0.839290 
		CHANNELS 3 Zrotation Yrotation Xrotation
		JOINT RightLeg
		{
			OFFSET -2.542530 -6.985550 0.000000 
			CHANNELS 3 Zrotation Yrotation Xrotation
			JOINT RightFoot
			{
				OFFSET -2.568260 -7.056230 0.000000 
				CHANNELS 3 Zrotation Yrotation Xrotation
				JOINT RightToeBase
				{
					OFFSET -0.164730 -0.452590 2.363150 
					CHANNELS 3 Zrotation Yrotation Xrotation
					End Site
					{
						OFFSET 0.000000 0.000000 0.000000 
					}
				}
			}
		}
	}
	JOINT Spine
	{
		OFFSET 0.028270 2.035590 -0.193380 
		CHANNELS 3 Zrotation Yrotation Xrotation
		JOINT Spine1
		{
			OFFSET 0.056720 2.048850 -0.042750 
			CHANNELS 3 Zrotation Yrotation Xrotation
			JOINT Neck1
			{
				OFFSET -0.054170 1.746240 0.172020 
				CHANNELS 3 Zrotation Yrotation Xrotation
				JOINT Head
				{
					OFFSET 0.104070 1.761360 -0.123970 
					CHANNELS 3 Zrotation Yrotation Xrotation
					End Site
					{
						OFFSET 0.000000 0.000000 0.000000 
					}
				}
			}
			JOINT LeftArm
			{
				OFFSET 3.362410 1.200890 -0.311210 
				CHANNELS 3 Zrotation Yrotation Xrotation
				JOINT LeftForeArm
				{
					OFFSET 4.983000 -0.000000 -0.000000 
					CHANNELS 3 Zrotation Yrotation Xrotation
					JOINT LeftHand
					{
						OFFSET 3.483560 -0.000000 -0.000000 
						CHANNELS 3 Zrotation Yrotation Xrotation
						JOINT LeftHandIndex1
						{
							OFFSET 0.715260 -0.000000 -0.000000 
							CHANNELS 3 Zrotation Yrotation Xrotation
							End Site
							{
								OFFSET 0.000000 0.000000 0.000000 
							}
						}
					}
				}
			}
			JOINT RightArm
			{
				OFFSET -3.136600 1.374050 -0.404650 
				CHANNELS 3 Zrotation Yrotation Xrotation
				JOINT RightForeArm
				{
					OFFSET -5.241900 -0.000000 -0.000000 
					CHANNELS 3 Zrotation Yrotation Xrotation
					JOINT RightHand
					{
						OFFSET -3.444170 -0.000000 -0.000000 
						CHANNELS 3 Zrotation Yrotation Xrotation
						JOINT RightHandIndex1
						{
							OFFSET -0.622530 -0.000000 -0.000000 
							CHANNELS 3 Zrotation Yrotation Xrotation
							End Site
							{
								OFFSET 0.000000 0.000000 0.000000 
							}
						}
					}
				}
			}
		}
	}
}
MOTION
Frames: 16
Frame Time: 0.041667
9.007813 18.139044 -43.471688 -175.441211 -22.683723 -177.898560 -17.942670 -16.801772 -6.526593 -2.025175 9.493373 26.568456 -4.421477 14.135761 -7.919617 0.174800 2.693400 7.426200 20.607835 6.115962 -7.369136 0.531212 -10.342508 31.835036 7.923298 -26.999758 -20.150565 -0.092500 -1.961000 5.397900 0.059836 3.265866 -3.215267 -5.844866 0.993815 -11.295700 6.559998 2.369698 19.617194 -0.072400 1.861400 8.344900 -81.670319 9.207617 33.374568 15.884995 -14.740675 -3.696977 2.758910 0.444142 32.438125 -7.125000 0.000000 0.000000 71.810696 10.799310 35.406039 -14.377361 15.708876 -3.878195 1.741153 0.074004 21.828381 7.125000 0.000000 0.000000 
8.973819 18.143782 -43.485665 -175.183809 -23.976373 -177.930932 -17.810458 -17.641331 -6.110396 -2.087701 9.350148 26.186537 -4.405916 14.041775 -7.445100 0.283900 3.426700 9.469100 20.834742 5.367488 -8.264236 0.129106 -10.847576 33.234309 8.019236 -27.059617 -19.110250 -0.221200 -3.027900 8.356400 0.276162 3.594454 -3.113454 -5.998263 1.125398 -11.211322 4.433513 2.926367 18.167445 -1.142200 1.995500 7.715100 -81.950871 11.463335 34.409362 16.019656 -14.879922 -3.752853 2.761655 0.439244 32.015922 -7.125000 0.000000 0.000000 72.986055 9.557944 36.714772 -14.371730 15.720787 -3.867608 1.730381 0.083301 22.120669 7.125000 0.000000 0.000000 
8.938049 18.151007 -43.499997 -175.168609 -25.176700 -177.971560 -17.968098 -18.477597 -5.513207 -2.164946 9.197492 25.800226 -4.462754 14.147967 -7.286193 0.284000 3.427300 9.470900 20.812319 4.780675 -9.089157 -0.290310 -11.371233 34.773794 8.047058 -27.134843 -18.781563 -0.386800 -3.993900 11.059400 0.376907 4.023205 -2.956978 -6.066435 1.332497 -11.160818 6.629640 2.889924 19.662675 0.012600 2.118100 8.352100 -82.261463 13.547041 34.882219 16.097176 -14.914862 -3.779110 2.783546 0.398544 32.014941 -7.125000 0.000000 0.000000 73.983502 8.353963 38.160119 -14.405249 15.783665 -3.876656 1.721855 0.100209 22.478307 7.125000 0.000000 0.000000 
8.912109 18.158351 -43.527002 -175.468788 -26.303780 -177.810788 -18.315993 -19.170060 -4.997122 -2.259903 9.015970 25.321213 -4.400528 13.984476 -6.983503 0.308600 3.571300 9.873500 20.539647 4.197747 -10.109214 -0.812711 -11.951075 36.439465 8.280505 -27.508078 -17.581093 -0.443800 -4.274200 11.849300 0.437291 4.483660 -2.801477 -5.901506 1.588326 -11.066691 5.174050 3.336005 18.704990 -0.696600 2.236200 7.951500 -82.571939 15.296151 34.316611 16.038160 -14.815707 -3.792504 2.812883 0.398858 32.499198 -7.125000 0.000000 0.000000 74.943513 7.211817 39.396478 -14.478568 15.891430 -3.872781 1.710774 0.093234 23.404332 7.125000 0.000000 0.000000 
8.888421 18.155982 -43.547019 -175.810330 -27.546339 -177.777389 -18.728947 -19.734804 -4.414036 -2.347741 8.824082 24.821405 -4.321006 13.769702 -6.404493 0.349800 3.800100 10.514900 20.216135 3.437379 -11.086895 -1.365296 -12.524694 38.250690 8.150687 -27.037410 -16.659897 -0.633200 -5.091300 14.169100 0.477651 4.857064 -2.545895 -5.694389 1.805559 -11.068614 5.405089 3.666504 19.089194 -0.559000 2.439700 8.171100 -82.870160 16.989838 32.967968 16.138508 -14.904819 -3.853701 2.842940 0.384910 33.250826 -7.125000 0.000000 0.000000 75.872165 6.275605 40.958375 -14.573410 16.010031 -3.858818 1.704116 0.060168 24.179759 7.125000 0.000000 0.000000 
8.863547 18.157640 -43.563720 -176.348133 -29.038189 -177.759789 -19.324689 -20.239559 -3.773742 -2.425883 8.640854 24.341389 -4.257846 13.597409 -5.669248 0.315200 3.609100 9.979400 19.777668 3.022953 -11.759679 -1.889897 -13.022293 39.914593 8.054969 -26.676432 -15.840118 -1.062200 -6.552500 18.396100 0.381988 5.031072 -2.165164 -5.472536 1.938486 -11.090391 5.154887 3.940324 19.060062 -0.688000 2.581100 8.164300 -82.751173 18.503456 32.911033 16.042646 -14.747409 -3.845939 2.850550 0.431411 32.602212 -7.125000 0.000000 0.000000 76.687427 5.580761 43.453137 -14.713144 16.198103 -3.871529 1.697961 0.047249 23.874861 7.125000 0.000000 0.000000 
8.819368 18.155745 -43.557916 -176.666404 -30.647395 -177.654148 -19.706802 -20.844776 -3.342977 -2.469893 8.521286 24.029298 -4.047911 13.094917 -5.030723 0.292500 3.477900 9.612100 19.476521 2.426386 -12.631887 -2.458161 -13.516681 41.480118 8.213777 -26.849543 -14.070094 -1.313300 -7.258800 20.484300 0.153359 5.201293 -2.063830 -5.680098 2.000259 -11.166365 4.733961 4.294891 19.061116 -0.897200 2.755400 8.184700 -82.594630 20.084454 32.259020 15.997931 -14.671487 -3.860923 2.870273 0.450106 32.240247 -7.125000 0.000000 0.000000 77.569804 4.981148 45.744516 -14.824265 16.344970 -3.878606 1.692378 0.049442 23.425027 7.125000 0.000000 0.000000 
8.800180 18.175288 -43.590606 -176.249454 -32.134414 -177.898352 -19.284051 -21.382092 -2.982681 -2.509342 8.373518 23.683719 -3.683610 12.205072 -4.289504 0.371600 3.915200 10.838300 20.067117 2.968243 -12.855096 -2.829975 -13.920300 42.757129 8.259047 -27.081738 -13.487215 -1.232600 -7.040900 19.836500 0.486201 5.482803 -1.998542 -5.657429 2.117646 -11.134126 4.242021 4.663266 19.107791 -1.143000 2.943500 8.212100 -82.166369 21.781735 32.278738 16.146262 -14.756491 -3.845582 2.882968 0.368187 31.414840 -7.125000 0.000000 0.000000 78.601784 4.553424 47.407704 -14.864680 16.409101 -3.861816 1.689950 0.069122 22.989107 7.125000 0.000000 0.000000 
8.783479 18.162141 -43.625784 -176.173571 -33.477486 -177.693485 -19.062134 -21.720783 -3.058024 -2.515518 8.306841 23.526469 -3.265402 11.220175 -3.606783 0.400200 4.061600 11.250200 20.066890 2.519044 -13.912045 -3.255160 -14.319375 43.971611 7.893983 -25.901783 -11.490625 -0.821900 -5.784500 16.160500 0.615239 5.874688 -1.955017 -5.539259 2.321790 -10.858780 4.041759 4.898635 19.093087 -1.232000 3.061700 8.208800 -81.390273 23.365446 33.217214 16.366656 -14.908117 -3.850805 2.868747 0.327285 30.341769 -7.125000 0.000000 0.000000 79.541442 4.277615 48.925165 -14.906874 16.478194 -3.854811 1.689260 0.098587 22.384264 7.125000 0.000000 0.000000 
8.772464 18.175288 -43.647934 -176.377152 -34.810359 -177.538142 -19.109802 -21.922072 -3.023167 -2.525263 8.238461 23.365415 -2.893258 10.349209 -2.875837 0.332800 3.707400 10.254800 19.981477 2.973742 -14.344529 -3.565054 -14.597011 44.832350 7.539309 -24.784116 -9.561420 -0.539700 -4.706900 13.074500 0.598823 6.351748 -1.877436 -5.512768 2.567613 -10.928852 4.044942 5.018140 19.003460 -1.215500 3.115800 8.159000 -80.896413 24.348526 31.501368 16.084763 -14.606128 -3.889337 2.887335 0.472497 31.497587 -7.125000 0.000000 0.000000 80.383690 4.084371 50.266667 -14.920933 16.514719 -3.851568 1.687915 0.127258 21.891959 7.125000 0.000000 0.000000 
8.765712 18.163325 -43.666885 -176.479294 -36.468396 -177.544363 -19.101035 -22.132715 -2.987529 -2.516083 8.197560 23.278893 -2.570990 9.587459 -1.999336 0.197100 2.858800 7.885800 19.949814 2.744724 -14.925814 -3.896022 -14.846623 45.686813 7.037648 -23.256694 -7.118493 -0.155300 -2.539200 6.998400 0.735145 6.651489 -1.672949 -5.429967 2.721256 -10.949915 4.230275 5.435712 19.475882 -1.090500 3.365200 8.371300 -80.101264 25.626292 31.982132 16.496074 -14.994278 -3.932063 2.893889 0.356971 30.525906 -7.125000 0.000000 0.000000 81.090515 4.132809 51.599387 -14.933382 16.559433 -3.877952 1.688765 0.163727 21.038156 7.125000 0.000000 0.000000 
8.751854 18.174222 -43.685599 -176.500644 -38.273507 -177.626569 -19.047245 -22.410811 -2.870984 -2.506317 8.144655 23.181797 -2.218049 8.750747 -1.024351 0.071900 1.729600 4.758900 20.119034 3.353921 -15.017164 -4.032707 -14.998521 46.237329 6.560626 -21.909292 -6.364353 -0.021100 -0.938100 2.578400 1.171692 6.827513 -1.300495 -5.211856 2.838576 -10.832932 4.038511 5.700874 19.079813 -1.126900 3.448800 8.199700 -79.555236 26.501158 31.229440 16.518643 -14.971002 -3.926979 2.911489 0.310447 31.363387 -7.125000 0.000000 0.000000 81.421056 4.383658 53.225116 -15.043451 16.730949 -3.954112 1.689317 0.195409 19.796945 7.125000 0.000000 0.000000 
8.733851 18.181921 -43.705142 -176.542814 -40.092344 -177.612292 -19.001371 -22.856040 -2.815968 -2.467313 8.152372 23.247911 -1.733798 7.613183 -0.168924 0.031600 1.147700 3.155200 20.275134 3.978868 -15.168881 -4.080973 -15.116958 46.681720 6.004152 -20.352864 -6.701397 -0.008100 -0.581000 1.596600 0.909480 7.007459 -1.398594 -5.540125 2.883706 -11.006504 4.307056 5.892404 19.164717 -1.010600 3.572900 8.206300 -78.425404 27.635236 30.337986 16.491697 -15.002690 -4.068111 2.949075 0.375529 32.285559 -7.125000 0.000000 0.000000 82.266781 4.498724 54.727899 -15.182608 16.929456 -4.018663 1.684706 0.234864 18.747004 7.125000 0.000000 0.000000 
8.721769 18.171972 -43.726462 -176.500569 -42.029936 -177.659078 -18.852477 -23.349896 -2.799145 -2.437147 8.146497 23.270244 -1.313705 6.616648 0.721138 0.015000 0.791900 2.176300 20.488601 3.938924 -15.610831 -4.152571 -15.240435 47.087774 5.655085 -19.394363 -6.929094 -0.005700 0.489100 -1.343900 0.903308 7.128300 -1.343861 -5.696971 2.917267 -11.035604 4.468272 6.196716 19.318701 -0.907900 3.741100 8.266700 -77.219687 28.653851 29.941998 16.562077 -15.074418 -4.100022 3.008447 0.236145 32.503957 -7.125000 0.000000 0.000000 82.779238 4.793110 56.401962 -15.368311 17.192954 -4.095618 1.677259 0.285636 17.683529 7.125000 0.000000 0.000000 
8.711346 18.163444 -43.748493 -176.644374 -44.086291 -177.496536 -18.817513 -24.036552 -2.827920 -2.396105 8.161523 23.352779 -0.811935 5.409322 1.547042 0.022600 0.970800 2.668400 20.606678 3.856283 -16.203949 -4.258371 -15.378197 47.416229 5.639509 -19.352689 -6.504516 -0.160700 2.582800 -7.119200 0.956901 7.159350 -1.241128 -5.647869 2.936347 -10.933146 4.400210 6.571173 19.305617 -0.905100 3.922400 8.264200 -75.955589 29.570594 30.587052 16.885842 -15.388482 -4.155165 3.015486 0.163379 31.323422 -7.125000 0.000000 0.000000 83.074319 5.231706 58.112781 -15.572081 17.476918 -4.171073 1.669465 0.324543 16.942993 7.125000 0.000000 0.000000 
8.697607 18.159180 -43.776564 -177.359291 -46.107787 -176.830935 -19.218976 -24.860143 -2.803847 -2.338332 8.216744 23.546842 -0.289767 4.105856 2.089265 0.057700 1.550300 4.264300 20.306109 4.089471 -16.802081 -4.332348 -15.487558 47.611407 5.497748 -18.889598 -5.823681 -0.321900 3.646900 -10.085400 0.834570 7.199673 -1.121948 -5.378378 2.995690 -10.760043 4.004964 6.886740 19.314546 -1.057000 4.063500 8.314100 -74.592187 30.409295 32.572847 17.434445 -15.932121 -4.277510 2.971478 0.213596 29.258652 -7.125000 0.000000 0.000000 83.246089 5.766570 59.282918 -15.783681 17.755053 -4.219682 1.661092 0.341141 17.005692 7.125000 0.000000 0.000000 
